<svg width="120" height="40" viewBox="0 0 120 40" fill="none" xmlns="http://www.w3.org/2000/svg">
<rect width="120" height="40" rx="4" fill="#E5E5FF"/>
<rect x="22.19" y="18" width="16" height="10" rx="1" fill="#7F4DFF"/>
<rect x="22.19" y="18" width="16" height="10" rx="1" stroke="#7F4DFF" stroke-width="2"/>
<rect x="23.19" y="19" width="14" height="8" rx="1" fill="#E5E5FF"/>
<mask id="path-4-inside-1_1_5023" fill="white">
<path d="M23.2 13C23.2 11.8954 24.0954 11 25.2 11H35.18C36.2846 11 37.18 11.8954 37.18 13H23.2Z"/>
</mask>
<path d="M23.2 13C23.2 10.7909 24.9909 9 27.2 9H33.18C35.3892 9 37.18 10.7909 37.18 13C37.18 13 36.2846 13 35.18 13H25.2C24.0954 13 23.2 13 23.2 13ZM37.18 13H23.2H37.18ZM23.2 13V11V13ZM37.18 11V13V11Z" fill="#7F4DFF" mask="url(#path-4-inside-1_1_5023)"/>
<mask id="path-6-inside-2_1_5023" fill="white">
<path d="M22.2 16C22.2 14.8954 23.0954 14 24.2 14H36.17C37.2746 14 38.17 14.8954 38.17 16H22.2Z"/>
</mask>
<path d="M22.2 16C22.2 14.8954 23.0954 14 24.2 14H36.17C37.2746 14 38.17 14.8954 38.17 16H22.2Z" fill="#7F4DFF"/>
<path d="M22.2 16C22.2 13.7909 23.9909 12 26.2 12H34.17C36.3792 12 38.17 13.7909 38.17 16C38.17 16 37.2746 16 36.17 16H24.2C23.0954 16 22.2 16 22.2 16ZM38.17 16H22.2H38.17ZM22.2 16V14V16ZM38.17 14V16V14Z" fill="#7F4DFF" mask="url(#path-6-inside-2_1_5023)"/>
<path d="M51.5358 24.5V14.3182H53.072V19.1804H53.1963L57.4669 14.3182H59.4009L55.2943 18.902L59.4158 24.5H57.5663L54.2752 19.951L53.072 21.3331V24.5H51.5358ZM63.0197 24.669C62.5358 24.669 62.0983 24.5795 61.7072 24.4006C61.3161 24.2183 61.0062 23.9548 60.7775 23.6101C60.5521 23.2654 60.4394 22.8428 60.4394 22.3423C60.4394 21.9115 60.5223 21.5568 60.688 21.2784C60.8537 21 61.0774 20.7796 61.3592 20.6172C61.6409 20.4548 61.9557 20.3321 62.3038 20.2493C62.6518 20.1664 63.0064 20.1035 63.3677 20.0604C63.8251 20.0073 64.1963 19.9643 64.4813 19.9311C64.7663 19.8946 64.9735 19.8366 65.1028 19.7571C65.232 19.6776 65.2967 19.5483 65.2967 19.3693V19.3345C65.2967 18.9003 65.174 18.5639 64.9288 18.3253C64.6868 18.0866 64.3255 17.9673 63.8449 17.9673C63.3445 17.9673 62.9501 18.0784 62.6617 18.3004C62.3767 18.5192 62.1795 18.7628 62.0701 19.0312L60.6731 18.7131C60.8388 18.2491 61.0807 17.8745 61.3989 17.5895C61.7204 17.3011 62.09 17.0923 62.5076 16.9631C62.9252 16.8305 63.3644 16.7642 63.8251 16.7642C64.13 16.7642 64.4531 16.8007 64.7945 16.8736C65.1392 16.9432 65.4607 17.0724 65.759 17.2614C66.0606 17.4503 66.3075 17.7204 66.4998 18.0717C66.692 18.4197 66.7881 18.8722 66.7881 19.429V24.5H65.3364V23.456H65.2768C65.1806 23.6482 65.0365 23.8371 64.8442 24.0227C64.652 24.2083 64.4051 24.3625 64.1035 24.4851C63.8019 24.6077 63.4406 24.669 63.0197 24.669ZM63.3428 23.4759C63.7538 23.4759 64.1051 23.3946 64.3968 23.2322C64.6918 23.0698 64.9155 22.8577 65.068 22.5959C65.2237 22.3307 65.3016 22.0473 65.3016 21.7457V20.7614C65.2486 20.8144 65.1458 20.8641 64.9934 20.9105C64.8442 20.9536 64.6735 20.9917 64.4813 21.0249C64.2891 21.0547 64.1018 21.0829 63.9195 21.1094C63.7372 21.1326 63.5848 21.1525 63.4621 21.169C63.1738 21.2055 62.9103 21.2668 62.6717 21.353C62.4363 21.4392 62.2474 21.5634 62.1049 21.7259C61.9657 21.8849 61.8961 22.0971 61.8961 22.3622C61.8961 22.7301 62.032 23.0085 62.3038 23.1974C62.5755 23.383 62.9219 23.4759 63.3428 23.4759ZM72.4167 16.8636V18.0568H68.2455V16.8636H72.4167ZM69.3641 15.0341H70.8506V22.2578C70.8506 22.5462 70.8937 22.7633 70.9799 22.9091C71.0661 23.0516 71.1771 23.1494 71.313 23.2024C71.4522 23.2521 71.603 23.277 71.7654 23.277C71.8847 23.277 71.9891 23.2687 72.0786 23.2521C72.1681 23.2356 72.2377 23.2223 72.2874 23.2124L72.5559 24.4403C72.4697 24.4735 72.3471 24.5066 72.188 24.5398C72.0289 24.5762 71.83 24.5961 71.5914 24.5994C71.2003 24.6061 70.8357 24.5365 70.4977 24.3906C70.1596 24.2448 69.8862 24.0194 69.6773 23.7145C69.4685 23.4096 69.3641 23.0268 69.3641 22.5661V15.0341ZM76.3674 24.669C75.8835 24.669 75.446 24.5795 75.0549 24.4006C74.6638 24.2183 74.3539 23.9548 74.1252 23.6101C73.8998 23.2654 73.7871 22.8428 73.7871 22.3423C73.7871 21.9115 73.87 21.5568 74.0357 21.2784C74.2014 21 74.4251 20.7796 74.7068 20.6172C74.9886 20.4548 75.3034 20.3321 75.6514 20.2493C75.9995 20.1664 76.3541 20.1035 76.7154 20.0604C77.1728 20.0073 77.544 19.9643 77.829 19.9311C78.114 19.8946 78.3212 19.8366 78.4504 19.7571C78.5797 19.6776 78.6443 19.5483 78.6443 19.3693V19.3345C78.6443 18.9003 78.5217 18.5639 78.2764 18.3253C78.0345 18.0866 77.6732 17.9673 77.1926 17.9673C76.6922 17.9673 76.2978 18.0784 76.0094 18.3004C75.7244 18.5192 75.5272 18.7628 75.4178 19.0312L74.0208 18.7131C74.1865 18.2491 74.4284 17.8745 74.7466 17.5895C75.0681 17.3011 75.4377 17.0923 75.8553 16.9631C76.2729 16.8305 76.712 16.7642 77.1728 16.7642C77.4777 16.7642 77.8008 16.8007 78.1422 16.8736C78.4869 16.9432 78.8084 17.0724 79.1067 17.2614C79.4083 17.4503 79.6552 17.7204 79.8475 18.0717C80.0397 18.4197 80.1358 18.8722 80.1358 19.429V24.5H78.6841V23.456H78.6245C78.5283 23.6482 78.3842 23.8371 78.1919 24.0227C77.9997 24.2083 77.7528 24.3625 77.4512 24.4851C77.1495 24.6077 76.7883 24.669 76.3674 24.669ZM76.6905 23.4759C77.1015 23.4759 77.4528 23.3946 77.7445 23.2322C78.0395 23.0698 78.2632 22.8577 78.4156 22.5959C78.5714 22.3307 78.6493 22.0473 78.6493 21.7457V20.7614C78.5963 20.8144 78.4935 20.8641 78.3411 20.9105C78.1919 20.9536 78.0212 20.9917 77.829 21.0249C77.6368 21.0547 77.4495 21.0829 77.2672 21.1094C77.0849 21.1326 76.9325 21.1525 76.8098 21.169C76.5215 21.2055 76.258 21.2668 76.0193 21.353C75.784 21.4392 75.5951 21.5634 75.4526 21.7259C75.3134 21.8849 75.2438 22.0971 75.2438 22.3622C75.2438 22.7301 75.3797 23.0085 75.6514 23.1974C75.9232 23.383 76.2696 23.4759 76.6905 23.4759ZM83.6863 14.3182V24.5H82.1998V14.3182H83.6863ZM88.9867 24.6541C88.2708 24.6541 87.646 24.4901 87.1124 24.1619C86.5788 23.8338 86.1645 23.3748 85.8695 22.7848C85.5745 22.1948 85.427 21.5054 85.427 20.7166C85.427 19.9245 85.5745 19.2318 85.8695 18.6385C86.1645 18.0452 86.5788 17.5845 87.1124 17.2564C87.646 16.9283 88.2708 16.7642 88.9867 16.7642C89.7026 16.7642 90.3274 16.9283 90.861 17.2564C91.3946 17.5845 91.8089 18.0452 92.1039 18.6385C92.3989 19.2318 92.5464 19.9245 92.5464 20.7166C92.5464 21.5054 92.3989 22.1948 92.1039 22.7848C91.8089 23.3748 91.3946 23.8338 90.861 24.1619C90.3274 24.4901 89.7026 24.6541 88.9867 24.6541ZM88.9917 23.4062C89.4557 23.4062 89.8402 23.2836 90.1451 23.0384C90.45 22.7931 90.6754 22.4666 90.8212 22.0589C90.9704 21.6513 91.0449 21.2022 91.0449 20.7116C91.0449 20.2244 90.9704 19.777 90.8212 19.3693C90.6754 18.9583 90.45 18.6286 90.1451 18.38C89.8402 18.1314 89.4557 18.0071 88.9917 18.0071C88.5243 18.0071 88.1366 18.1314 87.8283 18.38C87.5234 18.6286 87.2964 18.9583 87.1472 19.3693C87.0014 19.777 86.9285 20.2244 86.9285 20.7116C86.9285 21.2022 87.0014 21.6513 87.1472 22.0589C87.2964 22.4666 87.5234 22.7931 87.8283 23.0384C88.1366 23.2836 88.5243 23.4062 88.9917 23.4062ZM97.4913 27.5227C96.8848 27.5227 96.3628 27.4432 95.9253 27.2841C95.4911 27.125 95.1365 26.9145 94.8614 26.6527C94.5863 26.3909 94.3808 26.1042 94.2449 25.7926L95.5226 25.2656C95.6121 25.4115 95.7314 25.5656 95.8805 25.728C96.033 25.8937 96.2385 26.0346 96.497 26.1506C96.7589 26.2666 97.0953 26.3246 97.5062 26.3246C98.0697 26.3246 98.5354 26.187 98.9033 25.9119C99.2712 25.6402 99.4551 25.206 99.4551 24.6094V23.108H99.3607C99.2712 23.2704 99.1419 23.451 98.9729 23.6499C98.8071 23.8487 98.5785 24.0211 98.2868 24.1669C97.9951 24.3127 97.6156 24.3857 97.1483 24.3857C96.5451 24.3857 96.0015 24.2448 95.5176 23.9631C95.037 23.678 94.6559 23.2588 94.3741 22.7053C94.0957 22.1484 93.9565 21.464 93.9565 20.652C93.9565 19.84 94.0941 19.1439 94.3692 18.5639C94.6476 17.9839 95.0287 17.5398 95.5126 17.2315C95.9965 16.92 96.5451 16.7642 97.1582 16.7642C97.6322 16.7642 98.015 16.8438 98.3067 17.0028C98.5983 17.1586 98.8254 17.3409 98.9878 17.5497C99.1535 17.7585 99.2811 17.9425 99.3706 18.1016H99.48V16.8636H100.937V24.669C100.937 25.3253 100.784 25.8639 100.479 26.2848C100.174 26.7057 99.7617 27.0173 99.2413 27.2195C98.7243 27.4216 98.141 27.5227 97.4913 27.5227ZM97.4764 23.1527C97.904 23.1527 98.2652 23.0533 98.5602 22.8544C98.8585 22.6522 99.0839 22.3639 99.2364 21.9893C99.3921 21.6115 99.47 21.1591 99.47 20.6321C99.47 20.1184 99.3938 19.666 99.2413 19.2749C99.0889 18.8838 98.8652 18.5788 98.5702 18.3601C98.2752 18.138 97.9106 18.027 97.4764 18.027C97.029 18.027 96.6561 18.143 96.3578 18.375C96.0595 18.6037 95.8341 18.9152 95.6817 19.3097C95.5325 19.7041 95.458 20.1449 95.458 20.6321C95.458 21.1326 95.5342 21.5717 95.6866 21.9496C95.8391 22.3274 96.0645 22.6224 96.3628 22.8345C96.6644 23.0466 97.0356 23.1527 97.4764 23.1527Z" fill="#7F4DFF"/>
</svg>
